<svg xmlns="http://www.w3.org/2000/svg" viewBox="0 0 400 400"><circle fill="#fff" class="st0" cx="200" cy="200" r="92.4"/><path fill="#fff" class="st0" d="M379.8 112.3c7.6-8.4 12.3-19.5 12.3-31.6 0-26-21-47-47-47-8.9 0-17.3 2.5-24.4 6.8C287.1 15.1 245.3 0 200 0 89.5 0 0 89.5 0 200s89.5 200 200 200 200-89.5 200-200c0-31.5-7.3-61.2-20.2-87.7zM200 385.4c-102.4 0-185.4-83-185.4-185.4S97.6 14.5 200 14.5c40.9 0 78.7 13.2 109.3 35.6-7 8.2-11.3 18.9-11.3 30.5 0 26 21 47 47 47 8.4 0 16.3-2.2 23.1-6.1 11.1 23.8 17.3 50.4 17.3 78.4 0 102.5-83 185.5-185.4 185.5z"/></svg>