<svg xmlns="http://www.w3.org/2000/svg" viewBox="0 0 430 400"><ellipse fill="#fff" cx="215.1" cy="107" rx="43" ry="42.9"/><ellipse fill="#fff" cx="107.5" cy="292.7" rx="43" ry="42.9"/><ellipse fill="#fff" cx="322.6" cy="292.7" rx="43" ry="42.9"/><path fill="#fff" d="M322.6 185.7c-11.1 0-21.8 1.7-31.9 4.8-.8-1.6-1.8-3.1-2.9-4.5 21.4-19.6 34.8-47.7 34.8-78.9C322.6 48 274.5 0 215.1 0S107.5 48 107.5 107.1c0 31.2 13.4 59.3 34.8 78.9-1.1 1.4-2.1 2.9-2.9 4.5-10.1-3.1-20.8-4.8-31.9-4.8C48.1 185.7 0 233.7 0 292.9S48.1 400 107.5 400c49.6 0 91.3-33.5 103.7-78.9 1.2.2 2.5.4 3.8.4 1.3 0 2.6-.1 3.8-.4C231.3 366.5 273 400 322.6 400c59.4 0 107.5-48 107.5-107.1S382 185.7 322.6 185.7zm-199.4-78.6c0-50.5 41.2-91.6 91.9-91.6S307 56.7 307 107.1c0 28.8-13.4 54.5-34.3 71.3-.4 0-.8-.1-1.3-.1-8.8 0-16.3 5.2-19.6 12.7-11.2 4.9-23.6 7.6-36.7 7.6-13 0-25.4-2.7-36.7-7.6-3.4-7.5-10.9-12.7-19.6-12.7-.4 0-.8 0-1.3.1-20.9-16.7-34.3-42.5-34.3-71.3zM178.7 208c11.4 4.1 23.6 6.3 36.4 6.3 12.8 0 25-2.2 36.4-6.3.5 1.1 1 2.2 1.6 3.2-19.8 16.8-33.5 40.5-37.1 67.5h-2c-3.6-27-17.2-50.7-37.1-67.5.7-1.1 1.3-2.1 1.8-3.2zm-71.2 176.4c-50.7 0-91.9-41.1-91.9-91.6s41.2-91.6 91.9-91.6c10.8 0 21.2 1.9 30.9 5.3 2.9 8.5 10.9 14.6 20.4 14.6 1.8 0 3.5-.2 5.1-.6 19.8 15.4 33.2 38.7 35.2 65-3.4 3.8-5.6 8.8-5.6 14.3 0 4.5 1.4 8.7 3.8 12.2-8.9 41.4-45.7 72.4-89.8 72.4zm215.1 0c-44 0-80.9-31-89.8-72.3 2.4-3.5 3.8-7.6 3.8-12.2 0-5.5-2.1-10.5-5.6-14.3 2.1-26.4 15.4-49.7 35.2-65 1.6.4 3.3.6 5.1.6 9.5 0 17.5-6.1 20.4-14.6 9.7-3.4 20-5.3 30.9-5.3 50.7 0 91.9 41.1 91.9 91.6s-41.2 91.5-91.9 91.5z"/></svg>