<svg xmlns="http://www.w3.org/2000/svg" viewBox="0 0 400 400"><path stroke="#fff" fill="#fff" d="M93.3 66.4c0-14.7-11.9-26.7-26.7-26.7-14.7 0-26.6 12-26.6 26.7s11.9 26.7 26.7 26.7c14.7 0 26.6-12 26.6-26.7zM200 93.1c14.7 0 26.7-11.9 26.7-26.7 0-14.7-11.9-26.7-26.7-26.7-14.7 0-26.7 11.9-26.7 26.7 0 14.7 11.9 26.7 26.7 26.7zM333.3 93.1c14.7 0 26.7-11.9 26.7-26.7 0-14.7-11.9-26.7-26.7-26.7-14.7 0-26.7 11.9-26.7 26.7 0 14.7 12 26.7 26.7 26.7zM93.3 199.7c0-14.7-11.9-26.7-26.7-26.7-14.7 0-26.6 12-26.6 26.7s11.9 26.7 26.7 26.7c14.7 0 26.6-12 26.6-26.7zM200 226.4c14.7 0 26.7-11.9 26.7-26.7S214.7 173 200 173s-26.7 11.9-26.7 26.7 11.9 26.7 26.7 26.7zM333.3 173c-14.7 0-26.7 11.9-26.7 26.7s11.9 26.7 26.7 26.7c14.7 0 26.7-11.9 26.7-26.7S348 173 333.3 173zM66.7 306.3c-14.8 0-26.7 12-26.7 26.7s11.9 26.7 26.7 26.7c14.7 0 26.7-11.9 26.7-26.7-.1-14.7-12-26.7-26.7-26.7zM200 306.3c-14.7 0-26.7 11.9-26.7 26.7 0 14.7 11.9 26.7 26.7 26.7 14.7 0 26.7-11.9 26.7-26.7-.1-14.7-12-26.7-26.7-26.7zM306.6 333c0 14.7 11.9 26.7 26.7 26.7 14.7 0 26.7-11.9 26.7-26.7 0-14.7-11.9-26.7-26.7-26.7-14.7 0-26.7 12-26.7 26.7z"/><path d="M399.9 200c0-32.3-22.9-59.2-53.4-65.3 0-.4.1-.9.1-1.3s0-.9-.1-1.3C377 126 399.9 99 399.9 66.8 399.9 30 370.1.1 333.2.1 300.9.1 274 23 267.9 53.5c-.4 0-.9-.1-1.3-.1s-.9 0-1.3.1C259.1 22.9 232.2 0 200 0c-32.3 0-59.2 22.9-65.3 53.4-.4 0-.9-.1-1.3-.1s-.9 0-1.3.1C125.8 22.9 98.9 0 66.7 0 29.8 0 0 29.8 0 66.7 0 99 22.9 125.9 53.4 132c0 .4-.1.9-.1 1.3s0 .9.1 1.3C22.9 140.8 0 167.7 0 200s22.9 59.2 53.4 65.3c0 .4-.1.9-.1 1.3s0 .9.1 1.3C22.9 274.1 0 301 0 333.3c0 36.8 29.8 66.6 66.7 66.6 32.3 0 59.2-22.9 65.3-53.4.4 0 .9.1 1.3.1s.9 0 1.3-.1c6.1 30.5 33.1 53.4 65.3 53.4 32.3 0 59.2-22.9 65.3-53.4.4 0 .9.1 1.3.1s.9 0 1.3-.1c6.1 30.5 33.1 53.4 65.3 53.4 36.8 0 66.7-29.8 66.7-66.6 0-32.3-22.9-59.2-53.4-65.3 0-.4.1-.9.1-1.3s0-.9-.1-1.3c30.6-6.3 53.5-33.2 53.5-65.4zM277.2 58.6c3.9-27.4 27.6-48.6 56.1-48.6 31.2 0 56.7 25.4 56.7 56.7 0 28.5-21.2 52.1-48.6 56.1-2.2-1.7-5-2.7-8.1-2.7-3 0-5.8 1-8.1 2.7-24.8-3.6-44.4-23.2-48-48 1.7-2.2 2.8-5 2.8-8.1-.1-3.1-1.1-5.9-2.8-8.1zm-11.9 21.3c.4 0 .9.1 1.3.1s.9 0 1.3-.1c5.3 26.2 25.9 46.8 52.1 52.1 0 .4-.1.9-.1 1.3s0 .9.1 1.3c-26.2 5.3-46.8 25.9-52.1 52.1-.4 0-.9-.1-1.3-.1s-.9 0-1.3.1c-5.3-26.2-25.9-46.8-52.1-52.1 0-.4.1-.9.1-1.3s0-.9-.1-1.3c26.2-5.3 46.8-25.9 52.1-52.1zm-121.4 112c3.6-24.8 23.2-44.4 48-48 2.2 1.7 5 2.7 8.1 2.7 3 0 5.8-1 8.1-2.7 24.8 3.6 44.4 23.2 48 48-1.7 2.2-2.8 5-2.8 8.1 0 3 1 5.8 2.8 8.1-3.6 24.8-23.2 44.4-48 48-2.2-1.7-5-2.7-8.1-2.7-3 0-5.8 1-8.1 2.7-24.8-3.6-44.4-23.2-48-48 1.7-2.2 2.8-5 2.8-8.1-.1-3.1-1.1-5.9-2.8-8.1zm0-133.3C147.8 31.1 171.5 10 200 10s52.1 21.1 56.1 48.6c-1.7 2.2-2.8 5-2.8 8.1 0 3 1 5.8 2.8 8.1-3.6 24.8-23.2 44.4-48 48-2.2-1.7-5-2.7-8.1-2.7-3 0-5.8 1-8.1 2.7-24.8-3.6-44.4-23.2-48-48 1.7-2.2 2.8-5 2.8-8.1-.1-3.1-1.1-5.9-2.8-8.1zM132 79.9c.4 0 .9.1 1.3.1s.9 0 1.3-.1c5.3 26.2 25.9 46.8 52.1 52.1 0 .4-.1.9-.1 1.3s0 .9.1 1.3c-26.2 5.3-46.8 25.9-52.1 52.1-.4 0-.9-.1-1.3-.1s-.9 0-1.3.1c-5.3-26.2-25.9-46.8-52.1-52.1 0-.4.1-.9.1-1.3s0-.9-.1-1.3c26.2-5.3 46.8-25.9 52.1-52.1zM10 66.7C10 35.4 35.4 10 66.7 10c28.5 0 52.1 21.1 56.1 48.6-1.7 2.2-2.8 5-2.8 8.1 0 3 1 5.8 2.8 8.1-3.6 24.8-23.2 44.4-48 48-2.2-1.7-5-2.7-8.1-2.7-3 0-5.8 1-8.1 2.7-27.4-4-48.6-27.7-48.6-56.1zM10 200c0-28.5 21.2-52.1 48.6-56.1 2.2 1.7 5 2.7 8.1 2.7 3 0 5.8-1 8.1-2.7 24.8 3.6 44.4 23.2 48 48-1.7 2.2-2.8 5-2.8 8.1 0 3 1 5.8 2.8 8.1-3.6 24.8-23.2 44.4-48 48-2.2-1.7-5-2.7-8.1-2.7-3 0-5.8 1-8.1 2.7-27.4-4-48.6-27.6-48.6-56.1zm56.7 189.9c-31.2 0-56.7-25.4-56.7-56.6 0-28.5 21.2-52.1 48.6-56.1 2.2 1.7 5 2.7 8.1 2.7 3 0 5.8-1 8.1-2.7 24.8 3.6 44.4 23.2 48 48-1.7 2.2-2.8 5-2.8 8.1 0 3 1 5.8 2.8 8.1-4 27.4-27.6 48.5-56.1 48.5zm66.6-70c-.4 0-.9 0-1.3.1-5.3-26.2-25.9-46.8-52.1-52.1 0-.4.1-.9.1-1.3s0-.9-.1-1.3c26.2-5.3 46.8-25.9 52.1-52.1.4 0 .9.1 1.3.1s.9 0 1.3-.1c5.3 26.2 25.9 46.8 52.1 52.1 0 .4-.1.9-.1 1.3s0 .9.1 1.3c-26.2 5.3-46.8 25.9-52.1 52.1-.4 0-.8-.1-1.3-.1zm66.7 70c-28.5 0-52.1-21.1-56.1-48.6 1.7-2.2 2.8-5 2.8-8.1 0-3-1-5.8-2.8-8.1 3.6-24.8 23.2-44.4 48-48 2.2 1.7 5 2.7 8.1 2.7 3 0 5.8-1 8.1-2.7 24.8 3.6 44.4 23.2 48 48-1.7 2.2-2.8 5-2.8 8.1 0 3 1 5.8 2.8 8.1-4 27.5-27.6 48.6-56.1 48.6zm66.6-70c-.4 0-.9 0-1.3.1-5.3-26.2-25.9-46.8-52.1-52.1 0-.4.1-.9.1-1.3s0-.9-.1-1.3c26.2-5.3 46.8-25.9 52.1-52.1.4 0 .9.1 1.3.1s.9 0 1.3-.1c5.3 26.2 25.9 46.8 52.1 52.1 0 .4-.1.9-.1 1.3s0 .9.1 1.3c-26.2 5.3-46.8 25.9-52.1 52.1-.4 0-.8-.1-1.3-.1zm123.3 13.4c0 31.2-25.4 56.6-56.7 56.6-28.5 0-52.1-21.1-56.1-48.6 1.7-2.2 2.8-5 2.8-8.1 0-3-1-5.8-2.8-8.1 3.6-24.8 23.2-44.4 48-48 2.2 1.7 5 2.7 8.1 2.7 3 0 5.8-1 8.1-2.7 27.5 4 48.6 27.7 48.6 56.2zM341.3 256c-2.2-1.7-5-2.7-8.1-2.7-3 0-5.8 1-8.1 2.7-24.8-3.6-44.4-23.2-48-48 1.7-2.2 2.8-5 2.8-8.1 0-3-1-5.8-2.8-8.1 3.6-24.8 23.2-44.4 48-48 2.2 1.7 5 2.7 8.1 2.7 3 0 5.8-1 8.1-2.7 27.4 3.9 48.6 27.6 48.6 56.1 0 28.6-21.1 52.2-48.6 56.1z"/></svg>