<svg xmlns="http://www.w3.org/2000/svg">

    <symbol id="atoms" xmlns="http://www.w3.org/2000/svg" viewBox="0 0 400 400">
        <title>Atoms</title>
        <circle fill="currentColor" class="st0" cx="200" cy="200" r="92.4"/>
        <path fill="currentColor" class="st0" d="M379.8 112.3c7.6-8.4 12.3-19.5 12.3-31.6 0-26-21-47-47-47-8.9 0-17.3 2.5-24.4 6.8C287.1 15.1 245.3 0 200 0 89.5 0 0 89.5 0 200s89.5 200 200 200 200-89.5 200-200c0-31.5-7.3-61.2-20.2-87.7zM200 385.4c-102.4 0-185.4-83-185.4-185.4S97.6 14.5 200 14.5c40.9 0 78.7 13.2 109.3 35.6-7 8.2-11.3 18.9-11.3 30.5 0 26 21 47 47 47 8.4 0 16.3-2.2 23.1-6.1 11.1 23.8 17.3 50.4 17.3 78.4 0 102.5-83 185.5-185.4 185.5z"/>
    </symbol>

    <symbol id="molecules" xmlns="http://www.w3.org/2000/svg" viewBox="0 0 430 400">
        <title>Molecules</title>
        <ellipse fill="currentColor" cx="215.1" cy="107" rx="43" ry="42.9"/>
        <ellipse fill="currentColor" cx="107.5" cy="292.7" rx="43" ry="42.9"/>
        <ellipse fill="currentColor" cx="322.6" cy="292.7" rx="43" ry="42.9"/>
        <path fill="currentColor" d="M322.6 185.7c-11.1 0-21.8 1.7-31.9 4.8-.8-1.6-1.8-3.1-2.9-4.5 21.4-19.6 34.8-47.7 34.8-78.9C322.6 48 274.5 0 215.1 0S107.5 48 107.5 107.1c0 31.2 13.4 59.3 34.8 78.9-1.1 1.4-2.1 2.9-2.9 4.5-10.1-3.1-20.8-4.8-31.9-4.8C48.1 185.7 0 233.7 0 292.9S48.1 400 107.5 400c49.6 0 91.3-33.5 103.7-78.9 1.2.2 2.5.4 3.8.4 1.3 0 2.6-.1 3.8-.4C231.3 366.5 273 400 322.6 400c59.4 0 107.5-48 107.5-107.1S382 185.7 322.6 185.7zm-199.4-78.6c0-50.5 41.2-91.6 91.9-91.6S307 56.7 307 107.1c0 28.8-13.4 54.5-34.3 71.3-.4 0-.8-.1-1.3-.1-8.8 0-16.3 5.2-19.6 12.7-11.2 4.9-23.6 7.6-36.7 7.6-13 0-25.4-2.7-36.7-7.6-3.4-7.5-10.9-12.7-19.6-12.7-.4 0-.8 0-1.3.1-20.9-16.7-34.3-42.5-34.3-71.3zM178.7 208c11.4 4.1 23.6 6.3 36.4 6.3 12.8 0 25-2.2 36.4-6.3.5 1.1 1 2.2 1.6 3.2-19.8 16.8-33.5 40.5-37.1 67.5h-2c-3.6-27-17.2-50.7-37.1-67.5.7-1.1 1.3-2.1 1.8-3.2zm-71.2 176.4c-50.7 0-91.9-41.1-91.9-91.6s41.2-91.6 91.9-91.6c10.8 0 21.2 1.9 30.9 5.3 2.9 8.5 10.9 14.6 20.4 14.6 1.8 0 3.5-.2 5.1-.6 19.8 15.4 33.2 38.7 35.2 65-3.4 3.8-5.6 8.8-5.6 14.3 0 4.5 1.4 8.7 3.8 12.2-8.9 41.4-45.7 72.4-89.8 72.4zm215.1 0c-44 0-80.9-31-89.8-72.3 2.4-3.5 3.8-7.6 3.8-12.2 0-5.5-2.1-10.5-5.6-14.3 2.1-26.4 15.4-49.7 35.2-65 1.6.4 3.3.6 5.1.6 9.5 0 17.5-6.1 20.4-14.6 9.7-3.4 20-5.3 30.9-5.3 50.7 0 91.9 41.1 91.9 91.6s-41.2 91.5-91.9 91.5z"/>
    </symbol>

    <symbol id="organisms" xmlns="http://www.w3.org/2000/svg" viewBox="0 0 400 400">
        <title>Organisms</title>
        <path stroke="currentColor" fill="currentColor" d="M93.3 66.4c0-14.7-11.9-26.7-26.7-26.7-14.7 0-26.6 12-26.6 26.7s11.9 26.7 26.7 26.7c14.7 0 26.6-12 26.6-26.7zM200 93.1c14.7 0 26.7-11.9 26.7-26.7 0-14.7-11.9-26.7-26.7-26.7-14.7 0-26.7 11.9-26.7 26.7 0 14.7 11.9 26.7 26.7 26.7zM333.3 93.1c14.7 0 26.7-11.9 26.7-26.7 0-14.7-11.9-26.7-26.7-26.7-14.7 0-26.7 11.9-26.7 26.7 0 14.7 12 26.7 26.7 26.7zM93.3 199.7c0-14.7-11.9-26.7-26.7-26.7-14.7 0-26.6 12-26.6 26.7s11.9 26.7 26.7 26.7c14.7 0 26.6-12 26.6-26.7zM200 226.4c14.7 0 26.7-11.9 26.7-26.7S214.7 173 200 173s-26.7 11.9-26.7 26.7 11.9 26.7 26.7 26.7zM333.3 173c-14.7 0-26.7 11.9-26.7 26.7s11.9 26.7 26.7 26.7c14.7 0 26.7-11.9 26.7-26.7S348 173 333.3 173zM66.7 306.3c-14.8 0-26.7 12-26.7 26.7s11.9 26.7 26.7 26.7c14.7 0 26.7-11.9 26.7-26.7-.1-14.7-12-26.7-26.7-26.7zM200 306.3c-14.7 0-26.7 11.9-26.7 26.7 0 14.7 11.9 26.7 26.7 26.7 14.7 0 26.7-11.9 26.7-26.7-.1-14.7-12-26.7-26.7-26.7zM306.6 333c0 14.7 11.9 26.7 26.7 26.7 14.7 0 26.7-11.9 26.7-26.7 0-14.7-11.9-26.7-26.7-26.7-14.7 0-26.7 12-26.7 26.7z"/>
        <path fill="currentColor" d="M399.9 200c0-32.3-22.9-59.2-53.4-65.3 0-.4.1-.9.1-1.3s0-.9-.1-1.3C377 126 399.9 99 399.9 66.8 399.9 30 370.1.1 333.2.1 300.9.1 274 23 267.9 53.5c-.4 0-.9-.1-1.3-.1s-.9 0-1.3.1C259.1 22.9 232.2 0 200 0c-32.3 0-59.2 22.9-65.3 53.4-.4 0-.9-.1-1.3-.1s-.9 0-1.3.1C125.8 22.9 98.9 0 66.7 0 29.8 0 0 29.8 0 66.7 0 99 22.9 125.9 53.4 132c0 .4-.1.9-.1 1.3s0 .9.1 1.3C22.9 140.8 0 167.7 0 200s22.9 59.2 53.4 65.3c0 .4-.1.9-.1 1.3s0 .9.1 1.3C22.9 274.1 0 301 0 333.3c0 36.8 29.8 66.6 66.7 66.6 32.3 0 59.2-22.9 65.3-53.4.4 0 .9.1 1.3.1s.9 0 1.3-.1c6.1 30.5 33.1 53.4 65.3 53.4 32.3 0 59.2-22.9 65.3-53.4.4 0 .9.1 1.3.1s.9 0 1.3-.1c6.1 30.5 33.1 53.4 65.3 53.4 36.8 0 66.7-29.8 66.7-66.6 0-32.3-22.9-59.2-53.4-65.3 0-.4.1-.9.1-1.3s0-.9-.1-1.3c30.6-6.3 53.5-33.2 53.5-65.4zM277.2 58.6c3.9-27.4 27.6-48.6 56.1-48.6 31.2 0 56.7 25.4 56.7 56.7 0 28.5-21.2 52.1-48.6 56.1-2.2-1.7-5-2.7-8.1-2.7-3 0-5.8 1-8.1 2.7-24.8-3.6-44.4-23.2-48-48 1.7-2.2 2.8-5 2.8-8.1-.1-3.1-1.1-5.9-2.8-8.1zm-11.9 21.3c.4 0 .9.1 1.3.1s.9 0 1.3-.1c5.3 26.2 25.9 46.8 52.1 52.1 0 .4-.1.9-.1 1.3s0 .9.1 1.3c-26.2 5.3-46.8 25.9-52.1 52.1-.4 0-.9-.1-1.3-.1s-.9 0-1.3.1c-5.3-26.2-25.9-46.8-52.1-52.1 0-.4.1-.9.1-1.3s0-.9-.1-1.3c26.2-5.3 46.8-25.9 52.1-52.1zm-121.4 112c3.6-24.8 23.2-44.4 48-48 2.2 1.7 5 2.7 8.1 2.7 3 0 5.8-1 8.1-2.7 24.8 3.6 44.4 23.2 48 48-1.7 2.2-2.8 5-2.8 8.1 0 3 1 5.8 2.8 8.1-3.6 24.8-23.2 44.4-48 48-2.2-1.7-5-2.7-8.1-2.7-3 0-5.8 1-8.1 2.7-24.8-3.6-44.4-23.2-48-48 1.7-2.2 2.8-5 2.8-8.1-.1-3.1-1.1-5.9-2.8-8.1zm0-133.3C147.8 31.1 171.5 10 200 10s52.1 21.1 56.1 48.6c-1.7 2.2-2.8 5-2.8 8.1 0 3 1 5.8 2.8 8.1-3.6 24.8-23.2 44.4-48 48-2.2-1.7-5-2.7-8.1-2.7-3 0-5.8 1-8.1 2.7-24.8-3.6-44.4-23.2-48-48 1.7-2.2 2.8-5 2.8-8.1-.1-3.1-1.1-5.9-2.8-8.1zM132 79.9c.4 0 .9.1 1.3.1s.9 0 1.3-.1c5.3 26.2 25.9 46.8 52.1 52.1 0 .4-.1.9-.1 1.3s0 .9.1 1.3c-26.2 5.3-46.8 25.9-52.1 52.1-.4 0-.9-.1-1.3-.1s-.9 0-1.3.1c-5.3-26.2-25.9-46.8-52.1-52.1 0-.4.1-.9.1-1.3s0-.9-.1-1.3c26.2-5.3 46.8-25.9 52.1-52.1zM10 66.7C10 35.4 35.4 10 66.7 10c28.5 0 52.1 21.1 56.1 48.6-1.7 2.2-2.8 5-2.8 8.1 0 3 1 5.8 2.8 8.1-3.6 24.8-23.2 44.4-48 48-2.2-1.7-5-2.7-8.1-2.7-3 0-5.8 1-8.1 2.7-27.4-4-48.6-27.7-48.6-56.1zM10 200c0-28.5 21.2-52.1 48.6-56.1 2.2 1.7 5 2.7 8.1 2.7 3 0 5.8-1 8.1-2.7 24.8 3.6 44.4 23.2 48 48-1.7 2.2-2.8 5-2.8 8.1 0 3 1 5.8 2.8 8.1-3.6 24.8-23.2 44.4-48 48-2.2-1.7-5-2.7-8.1-2.7-3 0-5.8 1-8.1 2.7-27.4-4-48.6-27.6-48.6-56.1zm56.7 189.9c-31.2 0-56.7-25.4-56.7-56.6 0-28.5 21.2-52.1 48.6-56.1 2.2 1.7 5 2.7 8.1 2.7 3 0 5.8-1 8.1-2.7 24.8 3.6 44.4 23.2 48 48-1.7 2.2-2.8 5-2.8 8.1 0 3 1 5.8 2.8 8.1-4 27.4-27.6 48.5-56.1 48.5zm66.6-70c-.4 0-.9 0-1.3.1-5.3-26.2-25.9-46.8-52.1-52.1 0-.4.1-.9.1-1.3s0-.9-.1-1.3c26.2-5.3 46.8-25.9 52.1-52.1.4 0 .9.1 1.3.1s.9 0 1.3-.1c5.3 26.2 25.9 46.8 52.1 52.1 0 .4-.1.9-.1 1.3s0 .9.1 1.3c-26.2 5.3-46.8 25.9-52.1 52.1-.4 0-.8-.1-1.3-.1zm66.7 70c-28.5 0-52.1-21.1-56.1-48.6 1.7-2.2 2.8-5 2.8-8.1 0-3-1-5.8-2.8-8.1 3.6-24.8 23.2-44.4 48-48 2.2 1.7 5 2.7 8.1 2.7 3 0 5.8-1 8.1-2.7 24.8 3.6 44.4 23.2 48 48-1.7 2.2-2.8 5-2.8 8.1 0 3 1 5.8 2.8 8.1-4 27.5-27.6 48.6-56.1 48.6zm66.6-70c-.4 0-.9 0-1.3.1-5.3-26.2-25.9-46.8-52.1-52.1 0-.4.1-.9.1-1.3s0-.9-.1-1.3c26.2-5.3 46.8-25.9 52.1-52.1.4 0 .9.1 1.3.1s.9 0 1.3-.1c5.3 26.2 25.9 46.8 52.1 52.1 0 .4-.1.9-.1 1.3s0 .9.1 1.3c-26.2 5.3-46.8 25.9-52.1 52.1-.4 0-.8-.1-1.3-.1zm123.3 13.4c0 31.2-25.4 56.6-56.7 56.6-28.5 0-52.1-21.1-56.1-48.6 1.7-2.2 2.8-5 2.8-8.1 0-3-1-5.8-2.8-8.1 3.6-24.8 23.2-44.4 48-48 2.2 1.7 5 2.7 8.1 2.7 3 0 5.8-1 8.1-2.7 27.5 4 48.6 27.7 48.6 56.2zM341.3 256c-2.2-1.7-5-2.7-8.1-2.7-3 0-5.8 1-8.1 2.7-24.8-3.6-44.4-23.2-48-48 1.7-2.2 2.8-5 2.8-8.1 0-3-1-5.8-2.8-8.1 3.6-24.8 23.2-44.4 48-48 2.2 1.7 5 2.7 8.1 2.7 3 0 5.8-1 8.1-2.7 27.4 3.9 48.6 27.6 48.6 56.1 0 28.6-21.1 52.2-48.6 56.1z"/>
    </symbol>

    <symbol id="templates" xmlns="http://www.w3.org/2000/svg" viewBox="0 0 335 400">
        <title>Templates</title>
        <path fill="currentColor" d="M88.7 0H58v30.7h14.5V14.5h16.2M0 123.5h14.5v30.7H0zM0 184.9h14.5v30.7H0zM0 246.4h14.5v30.7H0zM0 307.8h14.5v30.7H0zM261.9 307.8h14.5v30.7h-14.5zM261.9 246.4h14.5v30.7h-14.5zM261.9 184.9h14.5v30.7h-14.5zM261.9 123.5h14.5v30.7h-14.5zM319.8 61.7h14.5v30.7h-14.5zM319.8 123.2h14.5v30.7h-14.5zM319.8 184.6h14.5v30.7h-14.5zM319.8 246h14.5v30.7h-14.5zM119.4 0h30.7v14.5h-30.7zM180.8 0h30.7v14.5h-30.7zM242.3 0H273v14.5h-30.7zM334.4 0h-30.7v14.5h16.1v16.2h14.6M276.4 61.7h-30.7v14.6h16.2v16.1h14.5V61.7M184.3 61.7H215v14.5h-30.7zM122.9 61.7h30.7v14.5h-30.7zM30.7 61.7H0v30.7h14.5V76.3h16.2M14.5 385.4v-16.2H0v30.7h30.7v-14.5M61.4 385.4h30.7v14.5H61.4zM122.9 385.4h30.7v14.5h-30.7zM184.3 385.4H215v14.5h-30.7zM276.4 369.2h-14.5v16.2h-16.2v14.5h30.7M334.4 307.5h-14.6v16.1h-16.1v14.6h30.7M58 61.7h34.1v14.5H58z"/>
    </symbol>

    <symbol id="pages" xmlns="http://www.w3.org/2000/svg" viewBox="0 0 335 400">
        <title>Pages</title>
        <path fill="currentColor" d="M334.5 0H58v61.8H0V400h276.5v-61.4h58V0zm-72.6 385.5H14.5V76.3H58v262.3h204v46.9zm0-233.6V324H72.5V76.3H182v75.6h79.9zm-65.4-14.5V80.8l59 56.6h-59zM319.9 324h-43.5V137.4l-78.7-75.6H72.5V14.5h247.4V324z"/>
    </symbol>

    <symbol id="arrow" xmlns="http://www.w3.org/2000/svg" viewBox="0 0 233 400">
        <title>Arrow</title>
        <path fill="currentColor" d="M201.4 399.7L0 201.3 201.3 0l31.1 31.1-170 170 169.8 167.3"/>
    </symbol>

    <symbol id="close" xmlns="http://www.w3.org/2000/svg" viewBox="0 0 40 40">
        <title>Close</title>
        <path stroke="currentColor" stroke-width="4" d="M2.5 37.5l35-35"/>
        <path stroke="currentColor" stroke-width="4" d="M2.5 2.5l35 35"/>
    </symbol>

    <symbol id="open" xmlns="http://www.w3.org/2000/svg" viewBox="0 0 40 40">
        <title>Open</title>
        <path fill="currentColor" d="M0 34L40 34L40 30L0 30L0 34Z"/>
        <path fill="currentColor" d="M0 6L40 6L40 10L0 10L0 6Z"/>
        <path fill="currentColor" d="M0 18L40 18L40 22L0 22L0 18Z"/>
    </symbol>


</svg>