<svg xmlns="http://www.w3.org/2000/svg" viewBox="0 0 335 400"><path fill="#fff" d="M88.7 0H58v30.7h14.5V14.5h16.2M0 123.5h14.5v30.7H0zM0 184.9h14.5v30.7H0zM0 246.4h14.5v30.7H0zM0 307.8h14.5v30.7H0zM261.9 307.8h14.5v30.7h-14.5zM261.9 246.4h14.5v30.7h-14.5zM261.9 184.9h14.5v30.7h-14.5zM261.9 123.5h14.5v30.7h-14.5zM319.8 61.7h14.5v30.7h-14.5zM319.8 123.2h14.5v30.7h-14.5zM319.8 184.6h14.5v30.7h-14.5zM319.8 246h14.5v30.7h-14.5zM119.4 0h30.7v14.5h-30.7zM180.8 0h30.7v14.5h-30.7zM242.3 0H273v14.5h-30.7zM334.4 0h-30.7v14.5h16.1v16.2h14.6M276.4 61.7h-30.7v14.6h16.2v16.1h14.5V61.7M184.3 61.7H215v14.5h-30.7zM122.9 61.7h30.7v14.5h-30.7zM30.7 61.7H0v30.7h14.5V76.3h16.2M14.5 385.4v-16.2H0v30.7h30.7v-14.5M61.4 385.4h30.7v14.5H61.4zM122.9 385.4h30.7v14.5h-30.7zM184.3 385.4H215v14.5h-30.7zM276.4 369.2h-14.5v16.2h-16.2v14.5h30.7M334.4 307.5h-14.6v16.1h-16.1v14.6h30.7M58 61.7h34.1v14.5H58z"/></svg>